<?xml version="1.0" standalone="no"?>
<!DOCTYPE svg PUBLIC "-//W3C//DTD SVG 20010904//EN"
 "http://www.w3.org/TR/2001/REC-SVG-20010904/DTD/svg10.dtd">
<svg version="1.0" xmlns="http://www.w3.org/2000/svg"
 width="2000.000000pt" height="1333.000000pt" viewBox="0 0 2000.000000 1333.000000"
 preserveAspectRatio="xMidYMid meet">

<g transform="translate(0.000000,1333.000000) scale(0.100000,-0.100000)"
fill="#000000" stroke="none">
<path d="M0 11850 l0 -1480 1480 0 1480 0 0 1480 0 1480 -1480 0 -1480 0 0
-1480z"/>
<path d="M4450 11850 l0 -1480 1475 0 1475 0 2 738 3 737 6298 3 6297 2 0 740
0 740 -7775 0 -7775 0 0 -1480z"/>
<path d="M7410 9630 l0 -740 6295 0 6295 0 0 740 0 740 -6295 0 -6295 0 0
-740z"/>
<path d="M0 7405 l0 -1475 1480 0 1480 0 0 1475 0 1475 -1480 0 -1480 0 0
-1475z"/>
<path d="M4450 7405 l0 -1475 7775 0 7775 0 0 735 0 735 -6297 2 -6298 3 -3
738 -2 737 -1475 0 -1475 0 0 -1475z"/>
<path d="M0 3700 l0 -740 10000 0 10000 0 0 740 0 740 -10000 0 -10000 0 0
-740z"/>
<path d="M0 740 l0 -740 10000 0 10000 0 0 740 0 740 -10000 0 -10000 0 0
-740z"/>
</g>
</svg>
